# xmcd CD database file
#
# Track frame offsets:
#	182
#	13835
#	28740
#	43712
#	58812
#	69745
#	84000
#	100452
#	112705
#	126635
#	141095
#	153952
#	168592
#	182632
#	196125
#	208712
#
# Disc length: 2999 seconds
#
# Revision: 0
# Processed by: cddbd v1.5.1PL0 Copyright (c) Steve Scherf et al.
# Submitted via: CDex 1.50
#
DISCID=df0bb510
DTITLE=Duke Ellington - The Indispensable Duke Ellington And The Small Groups Vols. 9 and 10 (1940-1946) [CD1 of 2)
DYEAR=1993
DGENRE=Jazz
TTITLE0=Some Saturday
TTITLE1=Subtle Slough
TTITLE2=Menelik The Lion Of Judah
TTITLE3=Poor Bubber
TTITLE4=Squaty Roo
TTITLE5=Passion Flower
TTITLE6=Things Ain't What They Used To Be
TTITLE7=Goin' Out The Back Way
TTITLE8=Brown Suede
TTITLE9=Noir Bleu
TTITLE10=C Blues
TTITLE11=June
TTITLE12=Frankie And Johnny
TTITLE13=Jumpin' Room Only
TTITLE14=Tonk
TTITLE15=Drawing Room Blues
EXTD=YEAR: 1993
EXTT0=
EXTT1=
EXTT2=
EXTT3=
EXTT4=
EXTT5=
EXTT6=
EXTT7=
EXTT8=
EXTT9=
EXTT10=
EXTT11=
EXTT12=
EXTT13=
EXTT14=
EXTT15=
PLAYORDER=
